<?xml version="1.0" standalone="no"?>
<!DOCTYPE svg PUBLIC "-//W3C//DTD SVG 20010904//EN"
 "http://www.w3.org/TR/2001/REC-SVG-20010904/DTD/svg10.dtd">
<svg version="1.0" xmlns="http://www.w3.org/2000/svg"
 width="225.000000pt" height="225.000000pt" viewBox="0 0 225.000000 225.000000"
 preserveAspectRatio="xMidYMid meet">

<g transform="translate(0.000000,225.000000) scale(0.100000,-0.100000)"
fill="#000000" stroke="none">
<path d="M935 2125 c-92 -17 -151 -37 -261 -90 -115 -56 -192 -114 -296 -224
-176 -188 -268 -422 -268 -686 0 -190 42 -346 141 -521 58 -104 234 -283 335
-343 170 -100 304 -140 494 -148 219 -9 373 29 566 138 110 61 292 243 353
353 99 175 141 331 141 521 0 191 -42 349 -138 513 -145 250 -412 439 -690
487 -102 18 -281 18 -377 0z m393 -109 c333 -72 612 -351 689 -688 22 -99 22
-307 0 -406 -77 -337 -352 -612 -689 -689 -99 -22 -307 -22 -406 0 -468 107
-776 566 -697 1038 64 385 354 683 735 753 102 19 261 15 368 -8z"/>
<path d="M1046 1697 c-54 -30 -78 -78 -73 -143 8 -113 113 -175 221 -130 73
31 109 142 68 216 -24 44 -85 80 -137 80 -23 0 -56 -10 -79 -23z"/>
<path d="M1052 1194 c-18 -9 -43 -31 -55 -48 -21 -30 -22 -41 -25 -291 -2
-233 -1 -264 15 -295 55 -108 221 -108 275 0 16 31 18 67 18 283 0 275 -4 297
-63 339 -40 29 -121 34 -165 12z"/>
</g>
</svg>
