<?xml version="1.0" standalone="no"?>
<!DOCTYPE svg PUBLIC "-//W3C//DTD SVG 20010904//EN"
 "http://www.w3.org/TR/2001/REC-SVG-20010904/DTD/svg10.dtd">
<svg version="1.0" xmlns="http://www.w3.org/2000/svg"
 width="253.000000pt" height="199.000000pt" viewBox="0 0 253.000000 199.000000"
 preserveAspectRatio="xMidYMid meet">

<g transform="translate(0.000000,199.000000) scale(0.100000,-0.100000)"
fill="#000000" stroke="none">
<path d="M1195 1961 c-81 -49 -112 -133 -80 -217 l17 -45 -88 -147 c-48 -81
-113 -189 -144 -241 -52 -87 -59 -95 -91 -99 -53 -6 -111 -43 -137 -87 -19
-33 -22 -51 -19 -102 3 -69 22 -103 75 -139 86 -59 210 -26 259 69 20 40 21
114 1 154 -15 31 -15 31 62 159 42 71 107 182 144 247 48 82 73 117 86 117 13
0 39 -35 86 -117 37 -65 102 -176 145 -246 74 -123 76 -130 63 -155 -18 -35
-18 -125 1 -161 47 -93 172 -125 258 -67 75 51 101 156 58 236 -23 45 -88 88
-135 92 -41 2 -32 -11 -239 338 l-86 146 14 39 c46 129 -33 245 -166 245 -35
0 -65 -7 -84 -19z"/>
<path d="M632 391 c3 -254 6 -261 86 -261 l45 0 -7 32 c-3 18 -13 36 -21 41
-12 7 -15 42 -15 207 l0 200 -46 0 -45 0 3 -219z"/>
<path d="M81 378 c-35 -112 -66 -211 -69 -220 -4 -15 3 -18 41 -18 l44 0 15
53 15 52 70 3 70 3 15 -53 15 -53 47 -3 c56 -4 59 -30 -28 240 l-62 193 -54 3
-55 3 -64 -203z m142 41 c9 -36 19 -73 22 -81 5 -13 -3 -17 -44 -19 -28 -2
-51 0 -51 4 0 27 44 177 50 170 4 -4 14 -38 23 -74z"/>
<path d="M1400 361 l0 -221 41 0 40 0 -3 155 c-2 85 0 151 3 147 3 -4 18 -43
34 -87 61 -176 63 -180 90 -180 27 0 29 4 90 180 16 44 31 83 34 87 3 4 5 -62
3 -147 l-3 -155 40 0 41 0 0 221 0 220 -52 -3 -51 -3 -50 -143 -50 -143 -51
143 -51 143 -52 3 -53 3 0 -220z"/>
<path d="M424 515 c-5 -39 -10 -45 -30 -45 -21 0 -24 -5 -24 -35 0 -28 4 -35
19 -35 17 0 19 -10 23 -97 7 -145 28 -173 127 -173 57 0 61 3 52 38 -6 21 -14
28 -40 30 -42 4 -53 33 -49 126 l3 71 43 3 c41 3 42 4 42 38 0 34 0 34 -45 34
l-45 0 0 45 c0 45 0 45 -34 45 -33 0 -35 -2 -42 -45z"/>
<path d="M885 474 c-11 -3 -37 -12 -57 -21 -37 -16 -37 -16 -22 -45 8 -16 21
-27 27 -24 63 26 87 29 112 12 41 -27 31 -42 -42 -60 -83 -20 -123 -54 -123
-104 0 -37 15 -70 39 -89 25 -19 92 -15 129 7 26 16 32 17 32 5 0 -11 11 -15
40 -15 l40 0 0 115 c0 121 -10 165 -47 197 -20 18 -92 30 -128 22z m85 -215
c0 -37 -23 -58 -61 -59 -36 0 -54 22 -39 50 12 23 42 38 78 39 18 1 22 -4 22
-30z"/>
<path d="M1174 466 c-40 -18 -64 -52 -64 -91 1 -42 19 -62 92 -98 70 -36 84
-64 37 -81 -21 -7 -37 -4 -67 11 l-41 20 -21 -29 -21 -29 43 -19 c77 -35 181
-20 208 29 16 32 12 96 -8 114 -10 9 -43 27 -74 41 -64 28 -75 40 -57 62 13
15 46 15 95 -1 16 -5 25 0 38 20 l17 26 -43 19 c-50 23 -91 25 -134 6z"/>
<path d="M1975 474 c-11 -3 -37 -12 -57 -21 -37 -16 -37 -16 -22 -45 11 -22
20 -28 32 -23 57 23 84 26 108 10 40 -26 29 -41 -43 -59 -50 -12 -75 -24 -95
-46 -41 -44 -35 -112 11 -147 24 -19 92 -15 128 6 26 16 32 17 37 5 3 -8 19
-14 41 -14 l35 0 0 115 c0 121 -10 165 -47 197 -20 18 -92 30 -128 22z m85
-215 c0 -19 -7 -37 -17 -45 -25 -19 -70 -17 -82 3 -18 34 21 71 77 72 18 1 22
-4 22 -30z"/>
<path d="M2335 461 c-47 -25 -45 -25 -45 -6 0 11 -11 15 -40 15 l-40 0 0 -230
0 -230 45 0 45 0 0 76 0 76 25 -16 c31 -21 89 -20 125 1 47 27 71 83 71 163 0
76 -17 120 -55 145 -40 27 -87 28 -131 6z m79 -83 c10 -13 16 -44 16 -74 0
-86 -51 -128 -108 -88 -19 13 -22 24 -22 84 0 60 3 71 22 84 33 23 74 20 92
-6z"/>
</g>
</svg>
