<?xml version="1.0" standalone="no"?>
<!DOCTYPE svg PUBLIC "-//W3C//DTD SVG 20010904//EN"
 "http://www.w3.org/TR/2001/REC-SVG-20010904/DTD/svg10.dtd">
<svg version="1.0" xmlns="http://www.w3.org/2000/svg"
 width="225.000000pt" height="225.000000pt" viewBox="0 0 225.000000 225.000000"
 preserveAspectRatio="xMidYMid meet">

<g transform="translate(0.000000,225.000000) scale(0.100000,-0.100000)"
fill="#000000" stroke="none">
<path d="M1049 2117 c-156 -44 -246 -168 -236 -327 3 -51 11 -90 27 -121 l23
-47 -148 -248 c-81 -137 -195 -330 -254 -429 l-107 -180 -54 -3 c-70 -3 -166
-49 -211 -99 -109 -125 -110 -311 -1 -434 77 -88 228 -124 343 -83 70 25 150
99 180 166 34 78 34 193 -2 265 -25 50 -25 53 -9 80 50 82 292 492 383 648
l105 180 37 0 37 0 105 -180 c58 -99 163 -277 233 -395 70 -118 135 -229 145
-246 17 -30 17 -32 -9 -97 -51 -129 -26 -250 73 -348 74 -72 132 -93 240 -87
60 3 88 11 130 33 150 82 208 266 131 421 -51 104 -152 171 -265 177 l-49 2
-106 177 c-58 98 -172 290 -253 428 l-148 250 25 64 c65 162 3 332 -147 405
-73 36 -153 46 -218 28z"/>
</g>
</svg>
